<svg id="Capa_1" enable-background="new 0 0 512 512" height="512" viewBox="0 0 512 512" width="512" xmlns="http://www.w3.org/2000/svg"><g><path d="m312.588 7.5h-155.11c-19.823 0-35.892 16.069-35.892 35.892v98.504c0 17.186 13.932 31.117 31.118 31.117h164.659c17.186 0 31.117-13.932 31.117-31.117v-98.504c0-19.823-16.07-35.892-35.892-35.892z" fill="#9448f5"/><g><path d="m328.75 398.829v82.34c0 12.886-10.446 23.332-23.332 23.332h-38.946c-12.886 0-23.332-10.446-23.332-23.332s10.446-23.332 23.332-23.332h15.614v-59.008z" fill="#9448f5"/></g><g><path d="m220.162 398.829v82.34c0 12.886-10.446 23.332-23.332 23.332h-38.946c-12.886 0-23.332-10.446-23.332-23.332s10.446-23.332 23.332-23.332h15.614v-59.008z" fill="#9448f5"/></g><path d="m173.499 398.829h46.663v31.178h-46.663z" fill="#6d00ca"/><path d="m282.087 398.829h46.663v31.178h-46.663z" fill="#6d00ca"/><path d="m425.726 23.149h-41.934c28.167 0 51 22.833 51 51v273.68c0 28.167-22.833 51-51 51h41.934c28.167 0 51-22.833 51-51v-273.68c0-28.167-22.833-51-51-51z" fill="#b98eff"/><path d="m288.852 50.969h-30.361c-8.924 0-16.158 7.234-16.158 16.158v46.258c0 8.924 7.234 16.158 16.158 16.158h30.361c8.924 0 16.158-7.234 16.158-16.158v-46.257c.001-8.924-7.234-16.159-16.158-16.159z" fill="#ddbeff"/><g><path d="m288.853 137.044h-30.361c-13.045 0-23.658-10.613-23.658-23.658v-46.258c0-13.046 10.613-23.659 23.658-23.659h30.361c13.045 0 23.658 10.613 23.658 23.659v46.258c0 13.045-10.613 23.658-23.658 23.658zm-30.361-78.575c-4.774 0-8.658 3.885-8.658 8.659v46.258c0 4.774 3.884 8.658 8.658 8.658h30.361c4.774 0 8.658-3.884 8.658-8.658v-46.258c0-4.774-3.884-8.659-8.658-8.659z" fill="#6d00ca"/></g><path d="m383.792 23.149h-41.567c3.944 5.763 6.255 12.732 6.255 20.243v98.504c0 17.186-13.932 31.117-31.117 31.117h-164.659c-17.186 0-31.118-13.932-31.118-31.117v-98.504c0-7.511 2.311-14.48 6.255-20.243h-41.567c-28.167 0-51 22.834-51 51v273.68c0 28.167 22.834 51 51 51h297.518c28.167 0 51-22.833 51-51v-273.68c0-28.167-22.833-51-51-51z" fill="#ddbeff"/><path d="m425.726 15.648h-41.934-37.87c-7.966-9.554-19.951-15.648-33.334-15.648h-155.11c-13.383 0-25.368 6.094-33.334 15.648h-37.87c-32.257 0-58.5 26.243-58.5 58.5v273.68c0 32.257 26.243 58.5 58.5 58.5h79.725v44.009h-8.114c-17 0-30.832 13.831-30.832 30.831 0 17.001 13.831 30.832 30.832 30.832h38.946c17.001 0 30.832-13.831 30.832-30.832v-74.84h46.924v44.009h-8.114c-17.001 0-30.832 13.831-30.832 30.831 0 17.001 13.831 30.832 30.832 30.832h38.946c17 0 30.832-13.831 30.832-30.832v-74.84h47.523c.007 0 .013.001.019.001h41.934c32.257 0 58.5-26.243 58.5-58.501v-273.68c-.001-32.256-26.244-58.5-58.501-58.5zm-213.063 465.52c0 8.729-7.102 15.832-15.832 15.832h-38.946c-8.729 0-15.832-7.103-15.832-15.832s7.102-15.831 15.832-15.831h15.614c4.142 0 7.5-3.357 7.5-7.5v-51.508h31.664zm108.587 0c0 8.729-7.102 15.832-15.832 15.832h-38.946c-8.73 0-15.832-7.103-15.832-15.832s7.102-15.831 15.832-15.831h15.614c4.142 0 7.5-3.357 7.5-7.5v-51.508h31.664zm-163.772-466.168h155.11c15.772 0 28.392 12.867 28.392 28.392v98.504c0 13.022-10.595 23.617-23.618 23.617h-164.658c-13.022 0-23.617-10.595-23.617-23.617v-98.504c-.001-15.751 12.831-28.392 28.391-28.392zm-114.704 332.828v-273.68c0-23.986 19.514-43.5 43.5-43.5h29.715c-1.257 4.096-1.903 8.507-1.903 12.743v98.504c0 21.294 17.324 38.617 38.617 38.617h164.659c21.294 0 38.618-17.323 38.618-38.617v-98.503c0-4.203-.639-8.624-1.903-12.743h29.715c23.986 0 43.5 19.514 43.5 43.5v273.68c0 23.981-19.509 43.5-43.5 43.5h-297.518c-23.986-.001-43.5-19.515-43.5-43.501zm426.452 0c0 23.986-19.514 43.501-43.5 43.501h-2.859c12.294-11.031 19.425-26.903 19.425-43.501v-273.68c0-16.086-6.697-32.041-19.425-43.5h2.859c23.986 0 43.5 19.514 43.5 43.5z" fill="#6d00ca"/><path d="m372.13 264.665v58.896c0 15.968-12.944 28.902-28.902 28.902h-216.389c-15.958 0-28.902-12.934-28.902-28.902v-58.896z" fill="#ffff6f"/><path d="m372.13 248.282v16.383h-274.193v-16.383c0-15.968 12.944-28.902 28.902-28.902h216.389c15.958-.001 28.902 12.934 28.902 28.902z" fill="#ffff6f"/><path d="m343.228 211.879h-216.389c-20.072 0-36.402 16.33-36.402 36.402v75.279c0 20.072 16.33 36.401 36.402 36.401h216.389c20.072 0 36.402-16.329 36.402-36.401 0-15.459 0-60.379 0-75.279 0-20.072-16.33-36.402-36.402-36.402zm-237.791 36.402c0-11.802 9.601-21.402 21.402-21.402h216.389c11.801 0 21.402 9.601 21.402 21.402v8.883h-259.193zm259.193 75.28c0 11.801-9.601 21.401-21.402 21.401h-216.389c-11.801 0-21.402-9.601-21.402-21.401v-51.396h259.193z" fill="#f90"/><circle cx="291.724" cy="298.217" fill="#f90" r="12.028"/><g><path d="m260.503 326.847h-50.94c-4.142 0-7.5-3.357-7.5-7.5s3.358-7.5 7.5-7.5h50.94c4.142 0 7.5 3.357 7.5 7.5s-3.358 7.5-7.5 7.5z" fill="#f90"/></g><circle cx="178.342" cy="298.217" fill="#f90" r="12.028"/></g></svg>